<?xml version="1.0" encoding="UTF-8" standalone="no"?>
<svg version="1.2" viewBox="0 0 16235.001 16761.501" preserveAspectRatio="xMidYMid" fill-rule="evenodd" stroke-width="28.222" stroke-linejoin="round" xml:space="preserve" id="svg97" sodipodi:docname="icone Supprimer vinyle.svg" inkscape:version="1.1 (c68e22c387, 2021-05-23)"
  xmlns:inkscape="http://www.inkscape.org/namespaces/inkscape"
  xmlns:sodipodi="http://sodipodi.sourceforge.net/DTD/sodipodi-0.dtd"
  xmlns="http://www.w3.org/2000/svg"
  xmlns:svg="http://www.w3.org/2000/svg">
  <defs id="defs101" />
  <sodipodi:namedview id="namedview99" pagecolor="#505050" bordercolor="#ffffff" borderopacity="1" inkscape:pageshadow="0" inkscape:pageopacity="0" inkscape:pagecheckerboard="1" inkscape:document-units="mm" showgrid="false" inkscape:zoom="0.67081229" inkscape:cx="307.83574" inkscape:cy="471.81604" inkscape:window-width="1920" inkscape:window-height="1017" inkscape:window-x="-8" inkscape:window-y="-8" inkscape:window-maximized="1" inkscape:current-layer="svg97" />
  <g visibility="visible" id="MasterSlide_1_Standard" transform="translate(-2382.5,-2382.5)">
    <desc id="desc2">Master slide
    </desc>
    <rect fill="none" stroke="none" x="0" y="0" width="21000" height="29700" id="rect4" />
  </g>
  <g visibility="visible" id="Slide_1_page1" transform="translate(-2382.5,-2382.5)">
    <g id="g8">
      <path fill="none" stroke="#3399ff" id="Drawing_1_0" stroke-width="1235" stroke-linejoin="round" d="m 5000,18000 v -2000 0 L 3000,7000 v 0 -4000 0 h 15000 v 0 4000 0 l -2000,9000 v 0 2000 0 z" />
    </g>
    <g id="g15">
      <path fill="#3399ff" stroke="none" d="m 4500,5300 c 227,0 400,238 400,550 0,312 -173,550 -400,550 -227,0 -400,-238 -400,-550 0,-312 173,-550 400,-550 z" id="path10" />
      <path fill="none" stroke="#3399ff" id="Drawing_2_0" stroke-linejoin="round" d="m 4500,5300 c 227,0 400,238 400,550 0,312 -173,550 -400,550 -227,0 -400,-238 -400,-550 0,-312 173,-550 400,-550 z" />
      <rect fill="none" stroke="none" x="4100" y="5300" width="801" height="1101" id="rect13" />
    </g>
    <g id="g22">
      <path fill="#3399ff" stroke="none" d="m 16500,5300 c 227,0 400,238 400,550 0,312 -173,550 -400,550 -227,0 -400,-238 -400,-550 0,-312 173,-550 400,-550 z" id="path17" />
      <path fill="none" stroke="#3399ff" id="Drawing_3_0" stroke-linejoin="round" d="m 16500,5300 c 227,0 400,238 400,550 0,312 -173,550 -400,550 -227,0 -400,-238 -400,-550 0,-312 173,-550 400,-550 z" />
      <rect fill="none" stroke="none" x="16100" y="5300" width="801" height="1101" id="rect20" />
    </g>
    <g id="g27">
      <path fill="#3399ff" stroke="none" d="M 10500,6400 H 4500 V 5300 h 12000 v 1100 z" id="path24" />
      <path fill="none" stroke="#3399ff" id="Drawing_4_0" stroke-linejoin="round" d="M 10500,6400 H 4500 V 5300 h 12000 v 1100 z" />
    </g>
    <g id="g30">
      <path fill="none" stroke="#3399ff" id="Drawing_5_0" stroke-width="706" stroke-linejoin="round" d="M 10500,16000 H 6400 V 8000 h 8200 v 8000 z" />
    </g>
    <g id="g33">
      <path fill="none" stroke="#3399ff" id="Drawing_6_0" stroke-width="212" stroke-linejoin="round" d="m 6900,8000 v 8000" />
    </g>
    <g id="g36">
      <path fill="none" stroke="#3399ff" id="Drawing_7_0" stroke-width="212" stroke-linejoin="round" d="m 7300,8000 v 8000" />
    </g>
    <g id="g39">
      <path fill="none" stroke="#3399ff" id="Drawing_8_0" stroke-width="212" stroke-linejoin="round" d="m 7700,8000 v 8000" />
    </g>
    <g id="g42">
      <path fill="none" stroke="#3399ff" id="Drawing_9_0" stroke-width="212" stroke-linejoin="round" d="m 8100,8000 v 8000" />
    </g>
    <g id="g45">
      <path fill="none" stroke="#3399ff" id="Drawing_10_0" stroke-width="212" stroke-linejoin="round" d="m 8500,8000 v 8000" />
    </g>
    <g id="g48">
      <path fill="none" stroke="#3399ff" id="Drawing_11_0" stroke-width="212" stroke-linejoin="round" d="m 8900,8000 v 8000" />
    </g>
    <g id="g51">
      <path fill="none" stroke="#3399ff" id="Drawing_12_0" stroke-width="212" stroke-linejoin="round" d="m 9300,8000 v 8000" />
    </g>
    <g id="g54">
      <path fill="none" stroke="#3399ff" id="Drawing_13_0" stroke-width="212" stroke-linejoin="round" d="m 9700,8000 v 8000" />
    </g>
    <g id="g57">
      <path fill="none" stroke="#3399ff" id="Drawing_14_0" stroke-width="212" stroke-linejoin="round" d="m 10100,8000 v 8000" />
    </g>
    <g id="g60">
      <path fill="none" stroke="#3399ff" id="Drawing_15_0" stroke-width="212" stroke-linejoin="round" d="m 10500,8000 v 8000" />
    </g>
    <g id="g63">
      <path fill="none" stroke="#3399ff" id="Drawing_16_0" stroke-width="212" stroke-linejoin="round" d="m 10900,8000 v 8000" />
    </g>
    <g id="g66">
      <path fill="none" stroke="#3399ff" id="Drawing_17_0" stroke-width="212" stroke-linejoin="round" d="m 11300,8000 v 8000" />
    </g>
    <g id="g69">
      <path fill="none" stroke="#3399ff" id="Drawing_18_0" stroke-width="212" stroke-linejoin="round" d="m 11700,8000 v 8000" />
    </g>
    <g id="g72">
      <path fill="none" stroke="#3399ff" id="Drawing_19_0" stroke-width="212" stroke-linejoin="round" d="m 12100,8000 v 8000" />
    </g>
    <g id="g75">
      <path fill="none" stroke="#3399ff" id="Drawing_20_0" stroke-width="212" stroke-linejoin="round" d="m 12500,8000 v 8000" />
    </g>
    <g id="g78">
      <path fill="none" stroke="#3399ff" id="Drawing_21_0" stroke-width="212" stroke-linejoin="round" d="m 12900,8000 v 8000" />
    </g>
    <g id="g81">
      <path fill="none" stroke="#3399ff" id="Drawing_22_0" stroke-width="212" stroke-linejoin="round" d="m 13300,8000 v 8000" />
    </g>
    <g id="g84">
      <path fill="none" stroke="#3399ff" id="Drawing_23_0" stroke-width="212" stroke-linejoin="round" d="m 13700,8000 v 8000" />
    </g>
    <g id="g87">
      <path fill="none" stroke="#3399ff" id="Drawing_24_0" stroke-width="212" stroke-linejoin="round" d="m 14100,8000 v 8000" />
    </g>
    <g id="g94">
      <path fill="#ff0000" stroke="none" d="m 6227,9203 1477,-1477 2868,2868 2868,-2868 1335,1335 -2868,2868 2868,2869 -1476,1476 -2869,-2868 -2868,2868 -1335,-1335 2868,-2868 z" id="path89" />
      <path fill="none" stroke="#ff0000" id="Drawing_25_0" stroke-linejoin="round" d="m 6227,9203 1477,-1477 2868,2868 2868,-2868 1335,1335 -2868,2868 2868,2869 -1476,1476 -2869,-2868 -2868,2868 -1335,-1335 2868,-2868 z" />
      <rect fill="none" stroke="none" x="3359" y="4858" width="14285" height="14286" id="rect92" />
    </g>
  </g>
</svg>
