<?xml version="1.0" encoding="UTF-8" standalone="no"?>
<svg version="1.2" viewBox="0 0 17630 16058" preserveAspectRatio="xMidYMid" fill-rule="evenodd" stroke-width="28.222" stroke-linejoin="round" xml:space="preserve" id="svg50" sodipodi:docname="icone Ranger vinyle.svg" inkscape:version="1.1 (c68e22c387, 2021-05-23)"
  xmlns:inkscape="http://www.inkscape.org/namespaces/inkscape"
  xmlns:sodipodi="http://sodipodi.sourceforge.net/DTD/sodipodi-0.dtd"
  xmlns="http://www.w3.org/2000/svg"
  xmlns:svg="http://www.w3.org/2000/svg">
  <defs id="defs54" />
  <sodipodi:namedview id="namedview52" pagecolor="#505050" bordercolor="#ffffff" borderopacity="1" inkscape:pageshadow="0" inkscape:pageopacity="0" inkscape:pagecheckerboard="1" inkscape:document-units="mm" showgrid="false" inkscape:zoom="0.67081229" inkscape:cx="303.36355" inkscape:cy="467.34385" inkscape:window-width="1920" inkscape:window-height="1017" inkscape:window-x="-8" inkscape:window-y="-8" inkscape:window-maximized="1" inkscape:current-layer="svg50" />
  <g visibility="visible" id="MasterSlide_1_Standard" transform="translate(-2471,-2471)">
    <desc id="desc2">Master slide
    </desc>
    <rect fill="none" stroke="none" x="0" y="0" width="21000" height="29700" id="rect4" />
  </g>
  <g visibility="visible" id="Slide_1_page1" transform="translate(-2471,-2471)">
    <g id="g8">
      <path fill="none" stroke="#3399ff" id="Drawing_1_0" stroke-width="1058" stroke-linejoin="round" d="m 5000,18000 v -2000 0 L 3000,7000 v 0 -4000 0 h 15000 v 0 4000 0 l -2000,9000 v 0 2000 0 z" />
    </g>
    <g id="g15">
      <path fill="#3399ff" stroke="none" d="m 4500,5300 c 227,0 400,238 400,550 0,312 -173,550 -400,550 -227,0 -400,-238 -400,-550 0,-312 173,-550 400,-550 z" id="path10" />
      <path fill="none" stroke="#3399ff" id="Drawing_2_0" stroke-linejoin="round" d="m 4500,5300 c 227,0 400,238 400,550 0,312 -173,550 -400,550 -227,0 -400,-238 -400,-550 0,-312 173,-550 400,-550 z" />
      <rect fill="none" stroke="none" x="4100" y="5300" width="801" height="1101" id="rect13" />
    </g>
    <g id="g22">
      <path fill="#3399ff" stroke="none" d="m 16500,5300 c 227,0 400,238 400,550 0,312 -173,550 -400,550 -227,0 -400,-238 -400,-550 0,-312 173,-550 400,-550 z" id="path17" />
      <path fill="none" stroke="#3399ff" id="Drawing_3_0" stroke-linejoin="round" d="m 16500,5300 c 227,0 400,238 400,550 0,312 -173,550 -400,550 -227,0 -400,-238 -400,-550 0,-312 173,-550 400,-550 z" />
      <rect fill="none" stroke="none" x="16100" y="5300" width="801" height="1101" id="rect20" />
    </g>
    <g id="g27">
      <path fill="#3399ff" stroke="none" d="M 10500,6400 H 4500 V 5300 h 12000 v 1100 z" id="path24" />
      <path fill="none" stroke="#3399ff" id="Drawing_4_0" stroke-linejoin="round" d="M 10500,6400 H 4500 V 5300 h 12000 v 1100 z" />
    </g>
    <g id="g30">
      <path fill="none" stroke="#3399ff" id="Drawing_5_0" stroke-width="706" stroke-linejoin="round" d="M 10550,16000 H 6200 V 8000 h 8700 v 8000 z" />
    </g>
    <g id="g33">
      <path fill="none" stroke="#3399ff" id="Drawing_6_0" stroke-width="212" stroke-linejoin="round" d="m 6800,8000 v 8000" />
    </g>
    <g id="g36">
      <path fill="none" stroke="#3399ff" id="Drawing_7_0" stroke-width="212" stroke-linejoin="round" d="m 7200,8000 v 8000" />
    </g>
    <g id="g39">
      <path fill="none" stroke="#3399ff" id="Drawing_8_0" stroke-width="212" stroke-linejoin="round" d="m 7600,8000 v 8000" />
    </g>
    <g id="g42">
      <path fill="none" stroke="#3399ff" id="Drawing_9_0" stroke-width="212" stroke-linejoin="round" d="m 8000,8000 v 8000" />
    </g>
    <g id="Drawing_10">
      <path fill="#36e200" stroke="none" d="m 11032,10565 9068,1395 -9068,1475 v 2065 L 6800,12000 11032,8500 Z" id="path44" />
      <rect fill="none" stroke="none" x="6799" y="8500" width="13302" height="7002" id="rect46" />
    </g>
  </g>
</svg>
