<?xml version="1.0" encoding="UTF-8" standalone="no"?>
<!-- Generator: Adobe Illustrator 19.0.0, SVG Export Plug-In . SVG Version: 6.00 Build 0)  -->

<svg
   version="1.1"
   id="Capa_1"
   x="0px"
   y="0px"
   viewBox="0 0 60.02 60.02"
   style="enable-background:new 0 0 60.02 60.02;"
   xml:space="preserve"
   sodipodi:docname="vinyls-svgrepo-com.svg"
   inkscape:version="1.1 (c68e22c387, 2021-05-23)"
   xmlns:inkscape="http://www.inkscape.org/namespaces/inkscape"
   xmlns:sodipodi="http://sodipodi.sourceforge.net/DTD/sodipodi-0.dtd"
   xmlns="http://www.w3.org/2000/svg"
   xmlns:svg="http://www.w3.org/2000/svg"><defs
   id="defs55" /><sodipodi:namedview
   id="namedview53"
   pagecolor="#505050"
   bordercolor="#ffffff"
   borderopacity="1"
   inkscape:pageshadow="0"
   inkscape:pageopacity="0"
   inkscape:pagecheckerboard="1"
   showgrid="false"
   inkscape:zoom="8.871233"
   inkscape:cx="25.644688"
   inkscape:cy="30.153644"
   inkscape:window-width="1920"
   inkscape:window-height="1009"
   inkscape:window-x="-8"
   inkscape:window-y="-8"
   inkscape:window-maximized="1"
   inkscape:current-layer="Capa_1" />
<g
   id="g20">
	<path
   d="M59.766,15.896l-0.363-0.386h-1.837l0.409-3.34c0.043-0.424-0.097-0.848-0.382-1.163c-0.286-0.315-0.694-0.497-1.12-0.497   h-2.437V7c0-0.821-0.669-1.49-1.491-1.49h-2.509V2c0-0.821-0.669-1.49-1.491-1.49H11.526c-0.821,0-1.49,0.669-1.49,1.49v3.51h-2.51   c-0.821,0-1.49,0.669-1.49,1.49v3.51H3.599c-0.426,0-0.834,0.182-1.12,0.497c-0.285,0.315-0.425,0.739-0.379,1.185l0.406,3.318   h-1.37c-0.321,0-0.623,0.141-0.83,0.386L0,16.306l5.959,41.856c0.138,0.781,0.813,1.348,1.605,1.348h44.942   c0.791,0,1.467-0.565,1.611-1.38l5.886-41.352C60.059,16.462,59.972,16.141,59.766,15.896z M12.036,2.51h36v3h-36V2.51z    M8.036,7.51h2h40h2v3h-44V7.51z M4.153,12.51h1.883h48h1.882l-0.367,3H4.521L4.153,12.51z M52.187,57.51H7.886l-5.695-40h0.561   H57.32h0.56L52.187,57.51z"
   id="path2" />
	<path
   d="M29.536,20.51c-11.304,0-20.5,7.626-20.5,17s9.196,17,20.5,17s20.5-7.626,20.5-17S40.84,20.51,29.536,20.51z M29.536,52.51   c-10.201,0-18.5-6.729-18.5-15s8.299-15,18.5-15s18.5,6.729,18.5,15S39.737,52.51,29.536,52.51z"
   id="path4" />
	<path
   d="M30.536,25.449c0-0.553-0.447-1-1-1c-3.993,0-7.778,1.21-10.946,3.499c-0.447,0.323-0.548,0.948-0.225,1.396   c0.195,0.271,0.501,0.414,0.812,0.414c0.203,0,0.407-0.062,0.585-0.189c2.824-2.041,6.204-3.12,9.774-3.12   C30.089,26.449,30.536,26.002,30.536,25.449z"
   id="path6" />
	<path
   d="M30.536,29.2c0-0.553-0.447-1-1-1c-3.105,0-6.049,0.941-8.512,2.723c-0.447,0.324-0.548,0.949-0.225,1.396   c0.196,0.271,0.501,0.414,0.812,0.414c0.203,0,0.408-0.062,0.585-0.189c2.12-1.533,4.658-2.344,7.34-2.344   C30.089,30.2,30.536,29.753,30.536,29.2z"
   id="path8" />
	<path
   d="M30.536,32.95c0-0.553-0.447-1-1-1c-2.229,0-4.339,0.68-6.104,1.967c-0.446,0.325-0.545,0.95-0.219,1.396   c0.195,0.269,0.5,0.411,0.809,0.411c0.204,0,0.41-0.063,0.588-0.192c1.42-1.035,3.124-1.582,4.926-1.582   C30.089,33.95,30.536,33.503,30.536,32.95z"
   id="path10" />
	<path
   d="M39.4,45.638c-2.824,2.042-6.204,3.121-9.774,3.121c-0.553,0-1,0.447-1,1s0.447,1,1,1c3.994,0,7.779-1.21,10.946-3.5   c0.447-0.324,0.548-0.949,0.225-1.396C40.474,45.414,39.847,45.314,39.4,45.638z"
   id="path12" />
	<path
   d="M28.626,46.008c0,0.553,0.447,1,1,1c3.106,0,6.05-0.942,8.512-2.724c0.448-0.324,0.548-0.949,0.225-1.396   c-0.325-0.448-0.95-0.548-1.396-0.225c-2.119,1.534-4.657,2.345-7.34,2.345C29.073,45.008,28.626,45.455,28.626,46.008z"
   id="path14" />
	<path
   d="M28.626,42.257c0,0.553,0.447,1,1,1c2.23,0,4.341-0.68,6.104-1.967c0.445-0.325,0.544-0.951,0.218-1.397   c-0.324-0.444-0.949-0.544-1.397-0.218c-1.418,1.035-3.121,1.582-4.925,1.582C29.073,41.257,28.626,41.704,28.626,42.257z"
   id="path16" />
	<ellipse
   cx="29.932"
   cy="37.494"
   rx="2.327"
   ry="1.689"
   id="ellipse18" />
</g>
<g
   id="g22">
</g>
<g
   id="g24">
</g>
<g
   id="g26">
</g>
<g
   id="g28">
</g>
<g
   id="g30">
</g>
<g
   id="g32">
</g>
<g
   id="g34">
</g>
<g
   id="g36">
</g>
<g
   id="g38">
</g>
<g
   id="g40">
</g>
<g
   id="g42">
</g>
<g
   id="g44">
</g>
<g
   id="g46">
</g>
<g
   id="g48">
</g>
<g
   id="g50">
</g>
<path
   style="fill:#3399ff;fill-opacity:1;stroke:#00ff00;stroke-width:0.112724"
   d="M 7.1787843,59.407374 C 6.8041553,59.318017 6.3216513,58.945289 6.136696,58.602374 6.0823674,58.501647 4.6905481,48.953057 3.0437644,37.383284 0.26948088,17.892062 0.06239256,16.32783 0.22365365,16.081715 0.47932593,15.691509 0.87362977,15.555899 1.7525245,15.555899 c 0.5536704,0 0.7827675,-0.04137 0.7803713,-0.140905 -0.00187,-0.0775 -0.099261,-0.901792 -0.2164355,-1.831764 -0.2068446,-1.641659 -0.2070333,-1.704566 -0.00649,-2.161932 0.3118678,-0.711245 0.6291891,-0.825251 2.2969799,-0.825251 h 1.4055181 l 0.03731,-2.0210869 c 0.033838,-1.8330462 0.059031,-2.050667 0.2707705,-2.3390209 0.4289539,-0.584163 0.857752,-0.7120988 2.38737,-0.7122928 l 1.3808672,-1.752e-4 4.22e-4,-1.9444873 c 3.74e-4,-1.7297136 0.02473,-1.9843475 0.220463,-2.3053674 0.466754,-0.76550218 -1.0757691,-0.70999699 19.731246,-0.70999699 20.807015,0 19.264492,-0.0555052 19.731246,0.70999699 0.195738,0.3210199 0.220089,0.5756538 0.220463,2.3053674 l 4.22e-4,1.9444873 h 1.356307 c 1.447556,0 1.907095,0.1114432 2.30722,0.5595255 0.20343,0.2278125 0.230952,0.4577655 0.281809,2.3545787 l 0.05636,2.1021096 1.521773,0.05636 c 0.928864,0.0344 1.620137,0.112563 1.774235,0.200608 0.609646,0.348327 0.709221,1.095621 0.423881,3.181109 -0.236856,1.731129 -0.320749,1.564289 0.8055,1.601927 0.916527,0.03063 0.988458,0.05118 1.207456,0.345031 0.150906,0.202485 0.22618,0.460375 0.213866,0.732706 -0.01045,0.231134 -1.341249,9.700414 -2.957329,21.042846 -2.16649,15.205485 -2.989447,20.70988 -3.13294,20.954862 -0.107037,0.182744 -0.337823,0.439015 -0.512858,0.569492 l -0.318244,0.237231 -22.733794,0.01733 C 17.782709,59.488716 7.3843287,59.456401 7.1787843,59.407374 Z M 52.182137,57.503803 c 0.05883,-0.09519 5.701587,-39.557681 5.701587,-39.873921 0,-0.134661 -4.064161,-0.157677 -27.842804,-0.157677 -26.4420706,0 -27.8427691,0.0099 -27.8421114,0.197267 0.00132,0.377272 5.624207,39.710246 5.6926467,39.820984 0.087447,0.141491 44.2032677,0.154785 44.2906817,0.01335 z M 55.7296,14.400479 c 0.07438,-0.635481 0.163963,-1.320279 0.199073,-1.521773 l 0.06383,-0.366353 H 30.043557 4.094606 l 0.062943,0.422715 c 0.034619,0.232493 0.1214293,0.917291 0.1929124,1.521773 L 4.480431,15.555899 H 30.037395 55.59436 Z M 52.078443,9.0179122 V 7.4961395 H 30.04092 8.0033971 l -0.031827,1.4027961 c -0.017504,0.7715379 -0.00637,1.4691444 0.024752,1.5502374 0.046385,0.120876 4.0225649,0.142312 22.0693499,0.118976 l 22.012771,-0.02846 z M 48.076744,4.0016985 V 2.4799259 H 30.04092 12.005096 V 4.0016985 5.5234712 H 30.04092 48.076744 Z"
   id="path30964" /><path
   style="fill:#3399ff;fill-opacity:1;stroke:#00ff00;stroke-width:0.112724"
   d="M 26.801941,54.328681 C 24.006621,53.978791 21.503934,53.232648 19.05034,52.017645 13.847714,49.441344 10.426588,45.285267 9.3429077,40.224795 9.0937576,39.061337 9.0635334,36.293896 9.2864698,35.057134 10.449245,28.606519 16.000168,23.253857 23.544106,21.308734 c 3.772857,-0.97279 8.206256,-0.97279 11.979113,0 11.444427,2.950821 17.405297,13.263764 13.000622,22.492463 -0.782632,1.639773 -1.725694,2.922593 -3.312946,4.5065 -3.103045,3.096504 -7.04297,5.055981 -11.788258,5.862753 -1.257779,0.213842 -5.387842,0.312548 -6.620696,0.158231 z m 5.244271,-1.919603 c 3.300013,-0.362558 6.633688,-1.559163 9.312994,-3.34285 1.388276,-0.924212 3.308397,-2.762855 4.212192,-4.033451 3.771665,-5.302377 3.210279,-11.905755 -1.425952,-16.772944 -3.743151,-3.929619 -10.218638,-6.21715 -16.201669,-5.723403 -7.794819,0.643266 -14.075925,4.837617 -16.215228,10.82809 -1.345223,3.76689 -0.805007,7.768191 1.529732,11.330507 0.84071,1.282745 3.027965,3.435051 4.440719,4.369762 2.656521,1.757617 5.986611,2.964043 9.222313,3.341064 1.193508,0.139066 3.873117,0.140753 5.124899,0.0032 z"
   id="path31003" /><path
   style="fill:#3399ff;fill-opacity:1;stroke:#00ff00;stroke-width:0.112724"
   d="m 18.891416,29.659434 c -0.44423,-0.122282 -0.728451,-0.599544 -0.639479,-1.073807 0.06473,-0.345024 0.195636,-0.485022 0.888056,-0.949709 2.906699,-1.950703 6.26939,-3.02894 9.654726,-3.095759 1.132918,-0.02236 1.15481,-0.01785 1.423853,0.293566 0.326272,0.377658 0.351529,0.858394 0.06377,1.213763 -0.189591,0.234134 -0.368565,0.272823 -1.885444,0.40757 -3.208971,0.285058 -5.773988,1.147629 -8.162956,2.745062 -0.714537,0.47779 -0.964602,0.563343 -1.342525,0.459314 z"
   id="path31042" /><path
   style="fill:#3399ff;fill-opacity:1;stroke:#00ff00;stroke-width:0.112724"
   d="m 20.961522,32.413246 c -0.292872,-0.292872 -0.365656,-0.811856 -0.16614,-1.184655 0.140909,-0.263291 1.347311,-1.026422 2.525897,-1.597801 1.692839,-0.820688 3.882149,-1.33709 5.668654,-1.33709 0.856762,0 0.975274,0.02676 1.225197,0.276685 0.352151,0.352152 0.360014,0.853831 0.01959,1.249603 -0.239789,0.278771 -0.34695,0.305603 -1.591512,0.39849 -2.223867,0.165978 -4.247356,0.836672 -6.041486,2.002474 -0.836806,0.543745 -1.241319,0.59117 -1.640195,0.192294 z"
   id="path31081" /><path
   style="fill:#3399ff;fill-opacity:1;stroke:#00ff00;stroke-width:0.112724"
   d="m 23.640517,35.558832 c -0.447109,-0.187995 -0.628405,-0.535338 -0.536137,-1.027174 0.06153,-0.327991 0.197354,-0.46947 0.865873,-0.901933 1.454243,-0.940745 3.074163,-1.468861 4.847664,-1.580406 1.06308,-0.06686 1.094507,-0.06175 1.380868,0.224611 0.404606,0.404605 0.391013,0.898981 -0.03647,1.326464 -0.288516,0.288516 -0.4112,0.329599 -0.986334,0.33029 -1.255348,0.0015 -2.953495,0.525058 -4.120525,1.270382 -0.750158,0.479088 -0.98511,0.538495 -1.414939,0.357766 z"
   id="path31120" /><path
   style="fill:#3399ff;fill-opacity:1;stroke:#00ff00;stroke-width:0.112724"
   d="m 28.963358,38.994651 c -0.189671,-0.05512 -0.53688,-0.266201 -0.771575,-0.46908 -0.348758,-0.301477 -0.436193,-0.461515 -0.47857,-0.875957 -0.108616,-1.062236 0.755582,-1.741826 2.214983,-1.741826 1.388522,0 2.253061,0.6408 2.254057,1.670714 3.38e-4,0.354254 -0.07929,0.51569 -0.424835,0.861233 -0.236754,0.236754 -0.623996,0.48043 -0.87361,0.549729 -0.524027,0.145481 -1.429237,0.147926 -1.92045,0.0052 z"
   id="path31159" /><path
   style="fill:#3399ff;fill-opacity:1;stroke:#00ff00;stroke-width:0.112724"
   d="m 28.964919,42.896569 c -0.353656,-0.353656 -0.360043,-0.853797 -0.01601,-1.253759 0.23498,-0.27318 0.365541,-0.311946 1.324506,-0.393263 1.345012,-0.114054 2.63137,-0.519669 3.712842,-1.170735 0.942886,-0.567635 1.44269,-0.648166 1.800715,-0.290142 0.602447,0.602447 0.364772,1.218069 -0.729908,1.890599 -1.487647,0.913954 -3.435281,1.493986 -5.016516,1.493986 -0.697962,0 -0.833914,-0.03497 -1.075629,-0.276686 z"
   id="path31198" /><path
   style="fill:#3399ff;fill-opacity:1;stroke:#00ff00;stroke-width:0.112724"
   d="m 29.292095,46.895974 c -0.604696,-0.248734 -0.788763,-1.06814 -0.340612,-1.516291 0.223131,-0.223131 0.424985,-0.275548 1.324506,-0.343948 2.436373,-0.185262 4.677947,-0.938508 6.528365,-2.193756 0.620106,-0.420654 0.894473,-0.431522 1.344038,-0.05324 0.344705,0.29005 0.441937,0.681825 0.276328,1.113395 -0.161297,0.420333 -2.370137,1.670683 -3.961228,2.242317 -1.542461,0.554164 -4.578558,0.995377 -5.171397,0.751521 z"
   id="path31237" /><path
   style="fill:#3399ff;fill-opacity:1;stroke:#00ff00;stroke-width:0.112724"
   d="m 29.195491,50.589606 c -0.56645,-0.324859 -0.687536,-1.046506 -0.249151,-1.484891 0.226584,-0.226584 0.409074,-0.266745 1.494198,-0.328831 3.032631,-0.173515 5.87396,-1.074137 8.226417,-2.607546 1.261207,-0.822097 1.873625,-0.84124 2.193675,-0.06857 0.223606,0.539833 -0.0084,0.933365 -0.899721,1.525891 -2.441538,1.623132 -5.327549,2.651643 -8.365592,2.981315 -1.392848,0.151145 -2.115109,0.145918 -2.399826,-0.01737 z"
   id="path31276" /></svg>
